<svg id="Isolation_Mode" data-name="Isolation Mode" xmlns="http://www.w3.org/2000/svg" viewBox="0 0 715.46 805.51"><defs><style>.cls-1{fill:#424242;}</style></defs><title>dco-logo</title><path class="cls-1" d="M441,749.72V687.3h0c138.19,0,250.62-112.43,250.62-250.62S579.15,186.06,441,186.06h0V123.64c172.61,0,313,140.43,313,313S613.57,749.72,441,749.72Z" transform="translate(-38.54 -33.93)"/><path class="cls-1" d="M441,653.33c-119.46,0-216.64-97.19-216.64-216.65S321.5,220,441,220v62.42c-85,0-154.23,69.18-154.23,154.22S355.92,590.91,441,590.91Z" transform="translate(-38.54 -33.93)"/><path class="cls-1" d="M441,559.25V496.83h0a60.15,60.15,0,0,0,0-120.3h0V314.11a122.57,122.57,0,0,1,0,245.14Z" transform="translate(-38.54 -33.93)"/><path class="cls-1" d="M441.3,839.44c-222.08,0-402.76-180.68-402.76-402.76S219.22,33.93,441.3,33.93V96.35C253.64,96.35,101,249,101,436.68S253.64,777,441.3,777Z" transform="translate(-38.54 -33.93)"/></svg>